<svg width="72.000000" height="72.000000" viewBox="0 0 72 72" fill="none" xmlns="http://www.w3.org/2000/svg" xmlns:xlink="http://www.w3.org/1999/xlink">
	<desc>
			Created with Pixso.
	</desc>
	<defs>
		<clipPath id="clip1_191">
			<rect id="Bahan" rx="0.000000" width="71.000000" height="71.000000" transform="translate(0.500000 0.500000)" fill="white" fill-opacity="0"/>
		</clipPath>
	</defs>
	<rect id="Bahan" rx="0.000000" width="71.000000" height="71.000000" transform="translate(0.500000 0.500000)" fill="#FFFFFF" fill-opacity="0"/>
	<g clip-path="url(#clip1_191)">
		<path id="Vector" d="M43.87 53.8L43.87 56.05L41.62 56.05L41.62 53.03C41.62 52.73 41.5 52.44 41.29 52.23C41.08 52.02 40.79 51.9 40.5 51.9C40.2 51.9 39.91 52.02 39.7 52.23C39.49 52.44 39.37 52.73 39.37 53.03L39.37 56.05L32.62 56.05L32.62 53.03C32.62 52.73 32.5 52.44 32.29 52.23C32.08 52.02 31.79 51.9 31.5 51.9C31.2 51.9 30.91 52.02 30.7 52.23C30.49 52.44 30.37 52.73 30.37 53.03L30.37 56.05L28.12 56.05L28.12 53.8C28.49 43.39 43.5 43.39 43.87 53.8ZM56.25 44.8C55 44.8 53.81 45.3 52.93 46.18C52.05 47.06 51.55 48.25 51.55 49.5C51.55 50.74 52.05 51.93 52.93 52.81C53.81 53.69 55 54.19 56.25 54.19C57.49 54.19 58.69 53.69 59.57 52.81C60.46 51.92 60.95 50.73 60.95 49.48C60.95 48.23 60.46 47.03 59.57 46.15C58.69 45.27 57.49 44.77 56.25 44.77L56.25 44.8ZM40.69 39.37C40.69 38.13 40.19 36.93 39.31 36.05C38.43 35.17 37.24 34.68 36 34.68C34.75 34.68 33.56 35.17 32.68 36.05C31.8 36.93 31.3 38.13 31.3 39.37C31.3 40.61 31.8 41.81 32.68 42.69C33.56 43.57 34.75 44.06 36 44.06C37.24 44.06 38.43 43.57 39.31 42.69C40.19 41.81 40.69 40.61 40.69 39.37ZM15.75 54.15C16.99 54.15 18.18 53.66 19.06 52.78C19.94 51.9 20.44 50.71 20.44 49.46C20.44 48.22 19.94 47.02 19.06 46.14C18.18 45.26 16.99 44.77 15.75 44.77C14.5 44.77 13.31 45.26 12.43 46.14C11.55 47.02 11.05 48.22 11.05 49.46C11.05 50.71 11.55 51.9 12.43 52.78C13.31 53.66 14.5 54.15 15.75 54.15ZM56.25 56.25C54.16 56.25 52.15 57.07 50.68 58.55C49.2 60.03 48.37 62.03 48.37 64.12L48.37 66.37L50.62 66.37L50.62 63.33C50.62 63.03 50.74 62.75 50.95 62.54C51.16 62.33 51.45 62.21 51.75 62.21C52.04 62.21 52.33 62.33 52.54 62.54C52.75 62.75 52.87 63.03 52.87 63.33L52.87 66.37L59.62 66.37L59.62 63.33C59.62 63.03 59.74 62.75 59.95 62.54C60.16 62.33 60.45 62.21 60.75 62.21C61.04 62.21 61.33 62.33 61.54 62.54C61.75 62.75 61.87 63.03 61.87 63.33L61.87 66.37L64.12 66.37L64.12 64.12C64.12 62.03 63.29 60.03 61.81 58.55C60.34 57.07 58.33 56.25 56.25 56.25ZM15.75 56.25C13.66 56.25 11.65 57.07 10.18 58.55C8.7 60.03 7.87 62.03 7.87 64.12L7.87 66.37L10.12 66.37L10.12 63.33C10.12 63.03 10.24 62.75 10.45 62.54C10.66 62.33 10.95 62.21 11.25 62.21C11.54 62.21 11.83 62.33 12.04 62.54C12.25 62.75 12.37 63.03 12.37 63.33L12.37 66.37L19.12 66.37L19.12 63.33C19.12 63.03 19.24 62.75 19.45 62.54C19.66 62.33 19.95 62.21 20.25 62.21C20.54 62.21 20.83 62.33 21.04 62.54C21.25 62.75 21.37 63.03 21.37 63.33L21.37 66.37L23.62 66.37L23.62 64.12C23.62 62.03 22.79 60.03 21.31 58.55C19.84 57.07 17.83 56.25 15.75 56.25ZM43.34 11.84L38.75 11.84L38.75 7.25C38.75 6.52 38.46 5.82 37.94 5.3C37.43 4.79 36.73 4.5 36 4.5C35.26 4.5 34.56 4.79 34.05 5.3C33.53 5.82 33.24 6.52 33.24 7.25L33.24 11.84L28.65 11.84C27.92 11.84 27.22 12.13 26.7 12.65C26.18 13.17 25.89 13.87 25.89 14.6C25.89 15.33 26.18 16.03 26.7 16.55C27.22 17.06 27.92 17.35 28.65 17.35L33.24 17.35L33.24 21.94C33.24 22.67 33.53 23.38 34.05 23.89C34.56 24.41 35.26 24.7 36 24.7C36.73 24.7 37.43 24.41 37.94 23.89C38.46 23.38 38.75 22.67 38.75 21.94L38.75 17.35L43.34 17.35C44.07 17.35 44.77 17.06 45.29 16.55C45.81 16.03 46.1 15.33 46.1 14.6C46.1 13.87 45.81 13.17 45.29 12.65C44.77 12.13 44.07 11.84 43.34 11.84ZM57.37 36C57.37 37.44 57.22 38.89 56.93 40.3C56.87 40.6 56.93 40.91 57.1 41.16C57.27 41.42 57.53 41.59 57.83 41.65C58.13 41.71 58.44 41.65 58.69 41.48C58.95 41.31 59.12 41.05 59.18 40.75C59.49 39.19 59.64 37.59 59.62 36C59.63 32.32 58.79 28.7 57.15 25.42C55.5 22.14 53.12 19.29 50.17 17.1C50.05 17.01 49.92 16.94 49.77 16.91C49.63 16.87 49.48 16.86 49.34 16.88C49.19 16.9 49.05 16.95 48.92 17.03C48.79 17.1 48.68 17.2 48.6 17.32C48.51 17.44 48.44 17.57 48.41 17.72C48.37 17.86 48.36 18.01 48.38 18.15C48.42 18.45 48.58 18.72 48.82 18.89C51.48 20.88 53.65 23.46 55.13 26.43C56.62 29.4 57.38 32.67 57.37 36ZM13.95 41.62C14.11 41.62 14.28 41.59 14.43 41.52C14.59 41.45 14.72 41.35 14.83 41.22C14.94 41.09 15.02 40.93 15.06 40.77C15.1 40.61 15.1 40.44 15.07 40.27C14.27 36.33 14.59 32.23 16.01 28.47C17.43 24.7 19.88 21.41 23.09 18.97C23.31 18.79 23.46 18.52 23.49 18.24C23.52 17.95 23.44 17.66 23.27 17.43C23.09 17.2 22.83 17.04 22.55 17C22.26 16.95 21.97 17.02 21.73 17.18C18.81 19.37 16.45 22.22 14.82 25.48C13.2 28.75 12.36 32.35 12.37 36C12.37 37.58 12.53 39.16 12.84 40.72C12.89 40.97 13.03 41.2 13.23 41.37C13.43 41.53 13.69 41.62 13.95 41.62Z" fill="#FFFFFF" fill-opacity="1.000000" fill-rule="nonzero"/>
	</g>
</svg>
