<svg width="15.105469" height="14.117676" viewBox="0 0 15.1055 14.1177" fill="none" xmlns="http://www.w3.org/2000/svg" xmlns:xlink="http://www.w3.org/1999/xlink">
	<desc>
			Created with Pixso.
	</desc>
	<defs/>
	<path id="Vector" d="M13.45 0L12.04 0L12.04 1.41C12.04 1.69 11.81 1.88 11.57 1.88C11.34 1.88 11.1 1.69 11.1 1.41L11.1 0L3.57 0L3.57 1.41C3.57 1.69 3.34 1.88 3.1 1.88C2.87 1.88 2.63 1.69 2.63 1.41L2.63 0L1.22 0C0.51 0 0 0.61 0 1.41L0 3.1L15.05 3.1L15.05 1.41C15.05 0.61 14.21 0 13.45 0ZM0 4.09L0 12.7C0 13.55 0.51 14.11 1.27 14.11L13.5 14.11C14.25 14.11 15.1 13.5 15.1 12.7L15.1 4.09L0 4.09ZM4.18 12L3.05 12C2.87 12 2.68 11.85 2.68 11.62L2.68 10.44C2.68 10.25 2.82 10.07 3.05 10.07L4.23 10.07C4.42 10.07 4.61 10.21 4.61 10.44L4.61 11.62C4.56 11.85 4.42 12 4.18 12ZM4.18 7.76L3.05 7.76C2.87 7.76 2.68 7.62 2.68 7.38L2.68 6.21C2.68 6.02 2.82 5.83 3.05 5.83L4.23 5.83C4.42 5.83 4.61 5.97 4.61 6.21L4.61 7.38C4.56 7.62 4.42 7.76 4.18 7.76ZM7.95 12L6.77 12C6.58 12 6.4 11.85 6.4 11.62L6.4 10.44C6.4 10.25 6.54 10.07 6.77 10.07L7.95 10.07C8.14 10.07 8.32 10.21 8.32 10.44L8.32 11.62C8.32 11.85 8.18 12 7.95 12ZM7.95 7.76L6.77 7.76C6.58 7.76 6.4 7.62 6.4 7.38L6.4 6.21C6.4 6.02 6.54 5.83 6.77 5.83L7.95 5.83C8.14 5.83 8.32 5.97 8.32 6.21L8.32 7.38C8.32 7.62 8.18 7.76 7.95 7.76ZM11.71 12L10.54 12C10.35 12 10.16 11.85 10.16 11.62L10.16 10.44C10.16 10.25 10.3 10.07 10.54 10.07L11.71 10.07C11.9 10.07 12.09 10.21 12.09 10.44L12.09 11.62C12.09 11.85 11.95 12 11.71 12ZM11.71 7.76L10.54 7.76C10.35 7.76 10.16 7.62 10.16 7.38L10.16 6.21C10.16 6.02 10.3 5.83 10.54 5.83L11.71 5.83C11.9 5.83 12.09 5.97 12.09 6.21L12.09 7.38C12.09 7.62 11.95 7.76 11.71 7.76Z" fill="#E6527E" fill-opacity="1.000000" fill-rule="nonzero"/>
</svg>
