<svg width="15.384766" height="20.000000" viewBox="0 0 15.3848 20" fill="none" xmlns="http://www.w3.org/2000/svg" xmlns:xlink="http://www.w3.org/1999/xlink">
	<desc>
			Created with Pixso.
	</desc>
	<defs/>
	<path id="Vector" d="M7.69 0C5.65 0 3.69 0.83 2.25 2.3C0.81 3.77 0 5.77 0 7.85C0 14.58 6.99 19.65 7.29 19.87C7.4 19.95 7.54 20 7.69 20C7.83 20 7.97 19.95 8.09 19.87C8.39 19.65 15.38 14.58 15.38 7.85C15.38 5.77 14.57 3.77 13.12 2.3C11.68 0.83 9.73 0 7.69 0ZM7.69 5C8.24 5 8.78 5.16 9.24 5.48C9.7 5.79 10.06 6.24 10.27 6.76C10.48 7.28 10.54 7.86 10.43 8.41C10.32 8.96 10.06 9.47 9.67 9.87C9.27 10.27 8.78 10.54 8.23 10.65C7.69 10.76 7.13 10.71 6.62 10.49C6.11 10.28 5.67 9.91 5.36 9.44C5.05 8.97 4.89 8.42 4.89 7.85C4.89 7.09 5.18 6.37 5.71 5.83C6.23 5.3 6.95 5 7.69 5Z" fill="#229CA7" fill-opacity="1.000000" fill-rule="nonzero"/>
</svg>
