<svg width="16.000000" height="16.000000" viewBox="0 0 16 16" fill="none" xmlns="http://www.w3.org/2000/svg" xmlns:xlink="http://www.w3.org/1999/xlink">
	<desc>
			Created with Pixso.
	</desc>
	<defs/>
	<path id="Vector" d="M5.94 5.57L8.91 5.57L8.91 7.05C9.34 6.2 10.43 5.43 12.08 5.43C15.24 5.43 16 7.13 16 10.24L16 16L12.8 16L12.8 10.95C12.8 9.17 12.37 8.18 11.28 8.18C9.77 8.18 9.14 9.25 9.14 10.94L9.14 16L5.94 16L5.94 5.57ZM0.45 15.86L3.65 15.86L3.65 5.43L0.45 5.43L0.45 15.86ZM4.11 2.04C4.11 2.3 4.06 2.57 3.95 2.82C3.85 3.06 3.7 3.29 3.51 3.48C3.12 3.86 2.6 4.08 2.05 4.08C1.51 4.08 0.98 3.86 0.6 3.48C0.41 3.29 0.26 3.06 0.15 2.82C0.05 2.57 0 2.3 0 2.04C0 1.49 0.21 0.98 0.6 0.59C0.98 0.21 1.51 0 2.05 0C2.6 0 3.12 0.21 3.51 0.59C3.89 0.98 4.11 1.49 4.11 2.04Z" fill="#FFFFFF" fill-opacity="1.000000" fill-rule="evenodd"/>
</svg>
