<svg width="19.000000" height="19.000000" viewBox="0 0 19 19" fill="none" xmlns="http://www.w3.org/2000/svg" xmlns:xlink="http://www.w3.org/1999/xlink">
	<desc>
			Created with Pixso.
	</desc>
	<defs/>
	<path id="Vector" d="M2.74 2.8C-0.94 6.53 -0.92 12.56 2.8 16.25C6.53 19.93 12.56 19.91 16.25 16.19C19.93 12.46 19.91 6.43 16.19 2.74C12.46 -0.94 6.43 -0.92 2.74 2.8ZM14.12 7.67L8.95 12.9C8.51 13.34 7.79 13.34 7.35 12.9L7.15 12.7L6.55 12.1L4.87 10.44C4.43 10 4.43 9.27 4.87 8.83C5.31 8.39 6.03 8.39 6.47 8.83L8.15 10.5L12.52 6.09C12.96 5.65 13.68 5.65 14.12 6.09C14.56 6.51 14.56 7.23 14.12 7.67Z" fill="#08849F" fill-opacity="1.000000" fill-rule="nonzero"/>
</svg>
