<svg width="200.566895" height="50.657227" viewBox="0 0 200.567 50.6572" fill="none" xmlns="http://www.w3.org/2000/svg" xmlns:xlink="http://www.w3.org/1999/xlink">
	<desc>
			Created with Pixso.
	</desc>
	<defs>
		<clipPath id="clip1_536">
			<rect id="Logo" rx="0.000000" width="199.567001" height="49.657001" transform="translate(0.500000 0.500000)" fill="white" fill-opacity="0"/>
		</clipPath>
	</defs>
	<rect id="Logo" rx="0.000000" width="199.567001" height="49.657001" transform="translate(0.500000 0.500000)" fill="#FFFFFF" fill-opacity="0"/>
	<g clip-path="url(#clip1_536)">
		<path id="Vector" d="M19.77 20.41C21.75 20.44 23.75 21.26 25.25 22.54C25.83 23.04 26.35 23.6 26.94 24.08C27.53 24.57 28.23 24.96 28.99 25.03C30.65 25.18 31.96 23.77 32.25 22.24C32.49 20.98 31.58 19.58 30.82 18.64C30.13 17.79 29.29 17.07 28.4 16.43C26.01 14.74 23.37 13.8 20.5 13.39C19.81 15.48 19.55 17.9 19.77 20.41L19.77 20.41Z" fill="#FFFFFF" fill-opacity="1.000000" fill-rule="nonzero"/>
		<path id="Vector" d="M49.6 40.09C47.55 36.71 44.23 40.58 41.79 41.32C40.2 41.84 38.48 41.78 36.85 41.48C34.87 43.91 32.63 45.95 30.23 47.54C35.68 49.88 42.57 50.05 47.39 46.21C49.19 44.82 50.85 42.35 49.6 40.09L49.6 40.09Z" fill="#FFFFFF" fill-opacity="1.000000" fill-rule="nonzero"/>
		<path id="Vector" d="M44 18.63C43.81 12.62 41.17 6.19 36.18 2.62C31.86 -0.47 26.1 -0.75 21.28 1.36C16.16 3.6 12.36 8.58 11.48 14.09C9.63 24.2 13.96 34.55 21.44 41.39C23.45 40.45 26.06 38.35 27.66 36.29C23.53 32.61 20.09 27.81 19.46 22.19C18.84 18.35 19.22 14.38 20.78 11.31C22.62 7.69 27.31 6.1 30.83 8.3C34.04 10.31 34.94 14.35 35.07 17.87C35.2 21.59 34.3 25.3 32.84 28.71C31.89 30.93 30.7 33.04 29.3 35.01C29.24 35.1 29.17 35.2 29.11 35.29C28.81 35.7 28.5 36.09 28.2 36.49C26.35 38.93 22.85 41.65 20.67 42.27C17.77 43.09 15.13 42.95 12.47 41.38C9.53 39.65 7.41 36.65 6.96 33.26C6.47 29.56 7.91 25.47 10.87 23.14C10.48 20.39 10.48 17.63 10.78 14.88C6.53 16.68 3.09 20.25 1.34 24.52C-1.34 31.05 0.08 39.01 4.83 44.23C5.61 45.09 6.48 45.88 7.4 46.58C10.37 48.84 13.96 50.33 17.69 50.61C21.74 50.9 25.59 49.74 29.03 47.66C31.83 45.97 34.3 43.75 36.37 41.23C41.42 34.88 44.35 26.77 44 18.63L44 18.63Z" fill="#FFFFFF" fill-opacity="1.000000" fill-rule="nonzero"/>
		<path id="Vector" d="M67.68 38.73C70.25 38.73 71.99 37.93 73.27 37.13L73.27 39.11C71.99 39.77 70.32 40.53 67.61 40.53C62.51 40.53 58.83 36.64 58.83 31.43C58.83 26.23 62.51 22.34 67.61 22.34C70.29 22.34 71.88 23.1 73.17 23.76L73.17 25.74C71.85 24.94 70.22 24.14 67.68 24.14C63.62 24.14 60.81 27.23 60.81 31.43C60.81 35.64 63.62 38.73 67.68 38.73Z" fill="#FFFFFF" fill-opacity="1.000000" fill-rule="nonzero"/>
		<path id="Vector" d="M78.69 23.66C79.66 23.14 81.88 22.34 84.59 22.34C89.21 22.34 91.4 24.59 91.4 28.93L91.4 40.12L89.56 40.12L89.56 37.75C89.52 36.85 89.66 36.23 89.66 36.23L89.59 36.23C89.59 36.37 87.44 40.53 82.96 40.53C79.76 40.53 77.61 38.59 77.61 35.78C77.61 31.4 82.33 29.25 89.49 30.32L89.49 29C89.49 25.36 87.47 24.11 84.42 24.11C81.85 24.11 79.59 25.01 78.69 25.57L78.69 23.66L78.69 23.66ZM89.49 31.89C83.27 30.88 79.59 32.55 79.59 35.67C79.59 37.51 80.98 38.8 83.17 38.8C86.81 38.8 89.49 35.19 89.49 31.89Z" fill="#FFFFFF" fill-opacity="1.000000" fill-rule="nonzero"/>
		<path id="Vector" d="M97.71 22.75L99.59 22.75L99.59 25.64C99.59 26.4 99.45 26.99 99.49 27.02L99.52 27.02C100.42 24.39 102.37 22.34 105.04 22.34C105.53 22.34 106.01 22.44 106.05 22.44L106.05 24.32C106.01 24.32 105.63 24.25 105.21 24.25C101.33 24.25 99.62 28.9 99.62 32.41L99.62 40.12L97.71 40.12L97.71 22.75Z" fill="#FFFFFF" fill-opacity="1.000000" fill-rule="nonzero"/>
		<path id="Vector" d="M125.11 30.46C125.11 30.84 125.08 31.23 125.08 31.5L111.15 31.5L111.15 31.75C111.15 35.91 113.93 38.76 117.99 38.76C120.32 38.76 122.68 38.07 124.45 36.92L124.45 38.87C122.92 39.77 120.6 40.53 117.96 40.53C112.82 40.53 109.14 36.85 109.14 31.44C109.14 26.19 112.75 22.34 117.44 22.34C122.37 22.34 125.11 26.19 125.11 30.46ZM117.4 24.11C113.79 24.11 111.6 26.99 111.22 30.01L123.1 30.01C123.1 26.99 121.12 24.11 117.4 24.11Z" fill="#FFFFFF" fill-opacity="1.000000" fill-rule="nonzero"/>
		<path id="Vector" d="M130.7 15.11L132.61 15.11L132.61 35.71C132.61 37.79 133.2 38.8 134.83 38.8C135.63 38.8 136.19 38.66 136.26 38.62L136.26 40.32C136.19 40.32 135.56 40.53 134.55 40.53C132.23 40.53 130.7 39.28 130.7 36.05L130.7 15.11Z" fill="#FFFFFF" fill-opacity="1.000000" fill-rule="nonzero"/>
		<path id="Vector" d="M156.78 31.43C156.78 36.64 153.06 40.53 148.06 40.53C143.06 40.53 139.35 36.64 139.35 31.43C139.35 26.23 143.06 22.34 148.06 22.34C153.06 22.34 156.78 26.23 156.78 31.43ZM154.83 31.43C154.83 27.2 152.02 24.11 148.06 24.11C144.1 24.11 141.29 27.2 141.29 31.43C141.29 35.67 144.1 38.76 148.06 38.76C152.02 38.76 154.83 35.67 154.83 31.43Z" fill="#FFFFFF" fill-opacity="1.000000" fill-rule="nonzero"/>
		<path id="Vector" d="M178.44 31.43C178.44 36.64 174.73 40.53 169.73 40.53C164.73 40.53 161.01 36.64 161.01 31.43C161.01 26.23 164.73 22.34 169.73 22.34C174.73 22.34 178.44 26.23 178.44 31.43ZM176.5 31.43C176.5 27.2 173.69 24.11 169.73 24.11C165.77 24.11 162.96 27.2 162.96 31.43C162.96 35.67 165.77 38.76 169.73 38.76C173.69 38.76 176.5 35.67 176.5 31.43Z" fill="#FFFFFF" fill-opacity="1.000000" fill-rule="nonzero"/>
		<path id="Vector" d="M184.21 22.75L186.08 22.75L186.08 25.01C186.08 25.81 185.98 26.4 185.98 26.4L186.05 26.4C187.02 24.32 189.55 22.34 192.54 22.34C197.16 22.34 200.56 26.26 200.56 31.43C200.56 36.71 197.16 40.53 192.54 40.53C189.55 40.53 187.05 38.55 186.12 36.5L186.05 36.5C186.05 36.5 186.15 37.09 186.15 37.93L186.15 47.76L184.21 47.76L184.21 22.75ZM198.62 31.43C198.62 27.3 196.19 24.11 192.44 24.11C189.45 24.11 186.12 26.33 186.12 31.43C186.12 36.54 189.45 38.76 192.44 38.76C196.19 38.76 198.62 35.67 198.62 31.43Z" fill="#FFFFFF" fill-opacity="1.000000" fill-rule="nonzero"/>
		<path id="Vector" d="M134.17 50.25L134.17 47.77L131.44 47.77L131.44 50.25L130.7 50.25L130.7 44.74L131.44 44.74L131.44 47.15L134.17 47.15L134.17 44.74L134.9 44.74L134.9 50.25L134.17 50.25Z" fill="#FFFFFF" fill-opacity="1.000000" fill-rule="nonzero"/>
		<path id="Vector" d="M139.97 50.25L139.97 44.74L143.35 44.74L143.35 45.36L140.7 45.36L140.7 47.15L142.94 47.15L142.94 47.77L140.7 47.77L140.7 49.63L143.47 49.63L143.47 50.25L139.97 50.25Z" fill="#FFFFFF" fill-opacity="1.000000" fill-rule="nonzero"/>
		<path id="Vector" d="M150.24 44.65L150.26 44.65L152.8 50.25L152.02 50.25L151.47 49.03L149.02 49.03L148.48 50.25L147.7 50.25L150.24 44.65ZM151.21 48.42C150.83 47.58 150.55 46.92 150.25 46.14C149.94 46.92 149.66 47.58 149.28 48.42L151.21 48.42Z" fill="#FFFFFF" fill-opacity="1.000000" fill-rule="nonzero"/>
		<path id="Vector" d="M157.77 50.25L157.77 44.74L158.5 44.74L158.5 49.63L160.88 49.63L160.88 50.25L157.77 50.25Z" fill="#FFFFFF" fill-opacity="1.000000" fill-rule="nonzero"/>
		<path id="Vector" d="M166.82 45.36L166.82 50.25L166.08 50.25L166.08 45.36L164.41 45.36L164.41 44.74L168.5 44.74L168.5 45.36L166.82 45.36Z" fill="#FFFFFF" fill-opacity="1.000000" fill-rule="nonzero"/>
		<path id="Vector" d="M176.7 50.25L176.7 47.77L173.97 47.77L173.97 50.25L173.23 50.25L173.23 44.74L173.97 44.74L173.97 47.15L176.7 47.15L176.7 44.74L177.44 44.74L177.44 50.25L176.7 50.25Z" fill="#FFFFFF" fill-opacity="1.000000" fill-rule="nonzero"/>
	</g>
</svg>
