<svg width="201" height="50" viewBox="0 0 201 50" fill="none" xmlns="http://www.w3.org/2000/svg">
<g clip-path="url(#clip0_1_510)">
<path d="M19.8217 20.1492C21.803 20.1838 23.8093 20.9912 25.3085 22.2516C25.8908 22.7412 26.4079 23.3028 27.0022 23.7776C27.5965 24.2523 28.294 24.6452 29.0556 24.7123C30.7162 24.8593 32.029 23.4637 32.3206 21.9545C32.5612 20.7108 31.6522 19.326 30.8946 18.4032C30.2031 17.5622 29.3593 16.8516 28.4633 16.2238C26.0752 14.5518 23.4275 13.6279 20.5443 13.2262C19.8608 15.2832 19.6012 17.6767 19.8207 20.1482L19.8217 20.1492Z" fill="#14868E"/>
<path d="M49.7132 39.5741C47.6588 36.2438 44.3316 40.0616 41.8864 40.793C40.2929 41.3014 38.5692 41.2461 36.9367 40.951C34.9504 43.3425 32.7086 45.3551 30.2964 46.9245C35.7652 49.2341 42.665 49.4068 47.5014 45.6166C49.3033 44.2457 50.9639 41.8057 49.7142 39.5731L49.7132 39.5741Z" fill="#14868E"/>
<path d="M44.0951 18.3914C43.9127 12.4652 41.268 6.11469 36.2582 2.58705C31.9299 -0.460902 26.1595 -0.736284 21.3311 1.34339C16.2 3.55434 12.3908 8.4737 11.5139 13.9152C9.65993 23.8872 13.9993 34.1049 21.4934 40.8582C23.5048 39.9343 26.1254 37.8556 27.7278 35.8263C23.5869 32.196 20.1425 27.4543 19.5081 21.9032C18.8858 18.1199 19.2626 14.1975 20.827 11.1663C22.672 7.59228 27.3751 6.02191 30.9057 8.1993C34.1136 10.1773 35.0165 14.1659 35.1468 17.6402C35.2851 21.315 34.3762 24.9768 32.916 28.3387C31.965 30.5289 30.7674 32.6174 29.3724 34.5629C29.3073 34.6537 29.2421 34.7445 29.176 34.8343C28.8813 35.237 28.5677 35.6239 28.264 36.0197C26.411 38.4301 22.9035 41.1128 20.7187 41.7248C17.8125 42.5381 15.1628 42.394 12.499 40.8483C9.5557 39.1407 7.43513 36.1816 6.98316 32.8287C6.4901 29.1796 7.9332 25.1466 10.9026 22.8409C10.5037 20.1345 10.5098 17.4073 10.8084 14.692C6.54722 16.4637 3.1028 19.9963 1.34602 24.2099C-1.34278 30.6562 0.0883057 38.5071 4.84656 43.6603C5.63125 44.5102 6.49511 45.286 7.4221 45.9818C10.3925 48.2106 13.9963 49.6872 17.7363 49.9546C21.7901 50.2448 25.6464 49.0949 29.0958 47.0468C31.9048 45.3798 34.3742 43.1866 36.4557 40.6973C41.5145 34.4316 44.4509 26.4268 44.0961 18.3904L44.0951 18.3914Z" fill="#14868E"/>
<path d="M67.8323 38.2297C70.4079 38.2297 72.1476 37.441 73.4354 36.6534V38.6067C72.1476 39.2582 70.477 40.0123 67.7632 40.0123C62.6482 40.0123 58.9592 36.1737 58.9592 31.0323C58.9592 25.8908 62.6482 22.0522 67.7632 22.0522C70.443 22.0522 72.0434 22.8063 73.3312 23.4578V25.4111C72.0093 24.6225 70.3728 23.8348 67.8333 23.8348C63.7616 23.8348 60.9435 26.8847 60.9435 31.0323C60.9435 35.1798 63.7616 38.2297 67.8323 38.2297Z" fill="#14868E"/>
<path d="M78.862 23.3551C79.8361 22.8409 82.0629 22.0522 84.7777 22.0522C89.4057 22.0522 91.5984 24.28 91.5984 28.5647V39.6007H89.7545V37.2703C89.7194 36.379 89.8587 35.7621 89.8587 35.7621H89.7895C89.7895 35.8993 87.6319 40.0123 83.1432 40.0123C79.9423 40.0123 77.7847 38.0935 77.7847 35.3169C77.7847 30.9987 82.5179 28.8736 89.6863 29.9357V28.6328C89.6863 25.0341 87.668 23.8003 84.6054 23.8003C82.0298 23.8003 79.7679 24.6916 78.864 25.2394V23.3541L78.862 23.3551ZM89.6843 31.4784C83.4549 30.4844 79.7669 32.1298 79.7669 35.2143C79.7669 37.0304 81.1589 38.2988 83.3517 38.2988C87.0055 38.2988 89.6843 34.7346 89.6843 31.4784Z" fill="#14868E"/>
<path d="M97.9302 22.4638H99.8092V25.3085C99.8092 26.0626 99.6699 26.6449 99.705 26.6794H99.7401C100.645 24.0747 102.593 22.0522 105.273 22.0522C105.76 22.0522 106.247 22.1549 106.282 22.1549V24.0056C106.247 24.0056 105.864 23.9375 105.446 23.9375C101.549 23.9375 99.8433 28.5301 99.8433 31.9916V39.6007H97.9292L97.9302 22.4638Z" fill="#14868E"/>
<path d="M125.386 30.0728C125.386 30.4499 125.351 30.8269 125.351 31.1013H111.397V31.3412C111.397 35.4541 114.181 38.2642 118.253 38.2642C120.584 38.2642 122.951 37.5782 124.726 36.4481V38.3678C123.194 39.2591 120.863 40.0132 118.219 40.0132C113.069 40.0132 109.38 36.38 109.38 31.0332C109.38 25.8572 112.998 22.0532 117.697 22.0532C122.638 22.0532 125.386 25.8572 125.386 30.0728ZM117.66 23.8013C114.042 23.8013 111.849 26.6459 111.466 29.6277H123.368C123.368 26.6459 121.385 23.8013 117.66 23.8013Z" fill="#14868E"/>
<path d="M130.987 14.923H132.901V35.2479C132.901 37.3049 133.493 38.2978 135.128 38.2978C135.929 38.2978 136.485 38.1606 136.555 38.1261V39.806C136.486 39.806 135.859 40.0113 134.85 40.0113C132.519 40.0113 130.987 38.7775 130.987 35.5904V14.923Z" fill="#14868E"/>
<path d="M157.121 31.0323C157.121 36.1737 153.397 40.0123 148.386 40.0123C143.374 40.0123 139.651 36.1737 139.651 31.0323C139.651 25.8908 143.374 22.0522 148.386 22.0522C153.397 22.0522 157.121 25.8908 157.121 31.0323ZM155.172 31.0323C155.172 26.8512 152.353 23.8003 148.387 23.8003C144.42 23.8003 141.601 26.8502 141.601 31.0323C141.601 35.2143 144.42 38.2642 148.387 38.2642C152.353 38.2642 155.172 35.2143 155.172 31.0323Z" fill="#14868E"/>
<path d="M178.834 31.0323C178.834 36.1737 175.111 40.0123 170.1 40.0123C165.088 40.0123 161.365 36.1737 161.365 31.0323C161.365 25.8908 165.088 22.0522 170.1 22.0522C175.111 22.0522 178.834 25.8908 178.834 31.0323ZM176.886 31.0323C176.886 26.8512 174.067 23.8003 170.101 23.8003C166.134 23.8003 163.315 26.8502 163.315 31.0323C163.315 35.2143 166.134 38.2642 170.101 38.2642C174.067 38.2642 176.886 35.2143 176.886 31.0323Z" fill="#14868E"/>
<path d="M184.61 22.4638H186.489V24.6916C186.489 25.4802 186.385 26.0626 186.385 26.0626H186.454C187.428 24.0056 189.968 22.0522 192.961 22.0522C197.589 22.0522 200.999 25.9254 200.999 31.0323C200.999 36.2418 197.589 40.0123 192.961 40.0123C189.968 40.0123 187.463 38.0589 186.523 36.0365H186.454C186.454 36.0365 186.558 36.6188 186.558 37.442V47.1416H184.61V22.4638ZM199.052 31.0323C199.052 26.9538 196.616 23.8003 192.858 23.8003C189.865 23.8003 186.524 25.9935 186.524 31.0323C186.524 36.071 189.865 38.2642 192.858 38.2642C196.616 38.2642 199.052 35.2143 199.052 31.0323Z" fill="#14868E"/>
<path d="M134.462 49.6022V47.1544H131.724V49.6022H130.987V44.1637H131.724V46.5434H134.462V44.1637H135.198V49.6022H134.462Z" fill="#14868E"/>
<path d="M140.276 49.6022V44.1637H143.667V44.7757H141.013V46.5434H143.253V47.1554H141.013V48.9913H143.781V49.6032L140.276 49.6022Z" fill="#14868E"/>
<path d="M150.572 44.0739H150.587L153.133 49.6032H152.35L151.806 48.3951H149.345L148.808 49.6032H148.025L150.572 44.0739ZM151.538 47.7979C151.162 46.9668 150.878 46.3174 150.579 45.5465C150.272 46.3174 149.988 46.9668 149.613 47.7979H151.538Z" fill="#14868E"/>
<path d="M158.116 49.6022V44.1637H158.852V48.9903H161.229V49.6022H158.116Z" fill="#14868E"/>
<path d="M167.184 44.7757V49.6022H166.448V44.7757H164.768V44.1637H168.871V44.7757H167.184Z" fill="#14868E"/>
<path d="M177.088 49.6022V47.1544H174.35V49.6022H173.613V44.1637H174.35V46.5434H177.088V44.1637H177.824V49.6022H177.088Z" fill="#14868E"/>
</g>
<defs>
<clipPath id="clip0_1_510">
<rect width="201" height="50" fill="white"/>
</clipPath>
</defs>
</svg>
