<svg width="18.725586" height="13.500000" viewBox="0 0 18.7256 13.5" fill="none" xmlns="http://www.w3.org/2000/svg" xmlns:xlink="http://www.w3.org/1999/xlink">
	<desc>
			Created with Pixso.
	</desc>
	<defs/>
	<path id="Vector" d="M2.39 0C1.75 0 1.15 0.25 0.7 0.7C0.25 1.15 0 1.75 0 2.39L0 11.1C0 11.74 0.25 12.34 0.7 12.79C1.15 13.24 1.75 13.5 2.39 13.5L16.33 13.5C16.96 13.5 17.57 13.24 18.02 12.79C18.47 12.34 18.72 11.74 18.72 11.1L18.72 2.39C18.72 1.75 18.47 1.15 18.02 0.7C17.57 0.25 16.96 0 16.33 0L2.39 0ZM5.38 3.6C5.24 3.5 5.06 3.47 4.9 3.5C4.73 3.54 4.58 3.63 4.49 3.77C4.39 3.91 4.35 4.08 4.38 4.25C4.4 4.41 4.49 4.57 4.63 4.67L8.98 7.72C9.09 7.79 9.22 7.83 9.36 7.83C9.49 7.83 9.62 7.79 9.73 7.72L14.09 4.67C14.16 4.62 14.22 4.56 14.27 4.48C14.32 4.41 14.35 4.33 14.37 4.24C14.39 4.16 14.39 4.07 14.37 3.98C14.35 3.9 14.32 3.82 14.27 3.75C14.22 3.67 14.15 3.61 14.08 3.57C14 3.52 13.92 3.49 13.83 3.47C13.75 3.46 13.66 3.46 13.57 3.49C13.49 3.51 13.41 3.54 13.34 3.6L9.36 6.38L5.38 3.6Z" fill="#229CA7" fill-opacity="1.000000" fill-rule="evenodd"/>
</svg>
