<svg width="22.000000" height="22.000000" viewBox="0 0 22 22" fill="none" xmlns="http://www.w3.org/2000/svg" xmlns:xlink="http://www.w3.org/1999/xlink">
	<desc>
			Created with Pixso.
	</desc>
	<defs>
		<clipPath id="clip1_486">
			<rect id="prime:download" rx="0.000000" width="21.000000" height="21.000000" transform="translate(0.500000 0.500000)" fill="white" fill-opacity="0"/>
		</clipPath>
	</defs>
	<rect id="prime:download" rx="0.000000" width="21.000000" height="21.000000" transform="translate(0.500000 0.500000)" fill="#FFFFFF" fill-opacity="0"/>
	<g clip-path="url(#clip1_486)">
		<path id="Vector" d="M16.7 19.02L5.29 19.02C4.98 19 4.66 18.93 4.37 18.79C4.09 18.66 3.83 18.47 3.61 18.24C3.4 18 3.23 17.73 3.12 17.43C3.01 17.13 2.96 16.81 2.97 16.5L2.97 13.75C2.97 13.56 3.05 13.39 3.18 13.26C3.3 13.13 3.48 13.06 3.66 13.06C3.84 13.06 4.02 13.13 4.15 13.26C4.28 13.39 4.35 13.56 4.35 13.75L4.35 16.5C4.33 16.77 4.41 17.04 4.58 17.25C4.75 17.46 5 17.6 5.27 17.64L16.7 17.64C16.97 17.6 17.21 17.46 17.38 17.25C17.56 17.04 17.64 16.77 17.61 16.5L17.61 13.75C17.61 13.56 17.69 13.39 17.81 13.26C17.94 13.13 18.12 13.06 18.3 13.06C18.48 13.06 18.66 13.13 18.79 13.26C18.92 13.39 18.99 13.56 18.99 13.75L18.99 16.5C19.02 17.13 18.79 17.76 18.36 18.23C17.93 18.7 17.33 18.98 16.7 19.02Z" fill="#08849F" fill-opacity="1.000000" fill-rule="nonzero"/>
		<path id="Vector" d="M11 14.43C10.9 14.43 10.82 14.42 10.73 14.38C10.65 14.35 10.57 14.3 10.51 14.23L6.84 10.56C6.72 10.43 6.66 10.26 6.66 10.08C6.66 9.91 6.73 9.74 6.86 9.61C6.99 9.48 7.16 9.41 7.33 9.41C7.51 9.41 7.68 9.47 7.81 9.59L11 12.77L14.18 9.59C14.31 9.47 14.48 9.41 14.66 9.41C14.83 9.41 15 9.48 15.13 9.61C15.26 9.74 15.33 9.91 15.33 10.08C15.34 10.26 15.27 10.43 15.15 10.56L11.48 14.23C11.42 14.3 11.34 14.35 11.26 14.38C11.17 14.42 11.09 14.43 11 14.43Z" fill="#08849F" fill-opacity="1.000000" fill-rule="nonzero"/>
		<path id="Vector" d="M11 14.43C10.81 14.43 10.64 14.36 10.51 14.23C10.38 14.1 10.31 13.93 10.31 13.75L10.31 3.66C10.31 3.48 10.38 3.3 10.51 3.18C10.64 3.05 10.81 2.97 11 2.97C11.18 2.97 11.35 3.05 11.48 3.18C11.61 3.3 11.68 3.48 11.68 3.66L11.68 13.75C11.68 13.93 11.61 14.1 11.48 14.23C11.35 14.36 11.18 14.43 11 14.43Z" fill="#08849F" fill-opacity="1.000000" fill-rule="nonzero"/>
	</g>
</svg>
