<svg width="33.000000" height="25.000000" viewBox="0 0 33 25" fill="none" xmlns="http://www.w3.org/2000/svg" xmlns:xlink="http://www.w3.org/1999/xlink">
	<desc>
			Created with Pixso.
	</desc>
	<defs/>
	<path id="Vector" d="M7.5 9.96C7.13 9.96 6.78 10.02 6.43 10.07C6.54 9.69 6.66 9.29 6.84 8.94C7.03 8.42 7.32 7.98 7.62 7.53C7.86 7.04 8.29 6.71 8.6 6.3C8.93 5.89 9.39 5.62 9.74 5.29C10.09 4.94 10.55 4.76 10.92 4.52C11.3 4.29 11.63 4.05 11.99 3.93L12.87 3.56L13.65 3.23L12.86 0L11.87 0.24C11.56 0.32 11.18 0.41 10.74 0.52C10.29 0.6 9.82 0.83 9.29 1.04C8.77 1.28 8.16 1.44 7.6 1.82C7.03 2.18 6.38 2.49 5.8 2.98C5.25 3.48 4.57 3.91 4.08 4.55C3.53 5.15 3 5.78 2.58 6.49C2.1 7.18 1.77 7.92 1.43 8.66C1.11 9.4 0.86 10.16 0.66 10.9C0.27 12.37 0.09 13.77 0.02 14.97C-0.03 16.16 0 17.16 0.07 17.88C0.09 18.22 0.14 18.55 0.17 18.78L0.21 19.06L0.26 19.05C0.55 20.44 1.22 21.72 2.2 22.73C3.18 23.75 4.42 24.46 5.78 24.79C7.14 25.12 8.56 25.05 9.88 24.59C11.21 24.14 12.37 23.31 13.25 22.21C14.13 21.1 14.68 19.77 14.85 18.36C15.01 16.95 14.78 15.52 14.18 14.24C13.57 12.96 12.63 11.88 11.44 11.12C10.26 10.37 8.89 9.96 7.5 9.96ZM25.59 9.96C25.22 9.96 24.87 10.02 24.52 10.07C24.64 9.69 24.75 9.29 24.94 8.94C25.13 8.42 25.42 7.98 25.71 7.53C25.96 7.04 26.38 6.71 26.7 6.3C27.03 5.89 27.48 5.62 27.84 5.29C28.19 4.94 28.65 4.76 29.01 4.52C29.39 4.29 29.73 4.05 30.08 3.93L30.97 3.56L31.75 3.23L30.95 0L29.97 0.24C29.66 0.32 29.27 0.41 28.84 0.52C28.39 0.6 27.91 0.83 27.38 1.04C26.86 1.28 26.26 1.44 25.69 1.82C25.13 2.19 24.47 2.49 23.9 2.98C23.34 3.48 22.67 3.92 22.17 4.55C21.63 5.15 21.09 5.78 20.68 6.49C20.19 7.18 19.87 7.92 19.52 8.66C19.21 9.4 18.96 10.16 18.75 10.9C18.36 12.37 18.19 13.77 18.12 14.97C18.06 16.16 18.1 17.16 18.17 17.88C18.19 18.22 18.24 18.55 18.27 18.78L18.31 19.06L18.35 19.05C18.65 20.44 19.32 21.72 20.3 22.73C21.27 23.75 22.51 24.46 23.87 24.79C25.23 25.12 26.66 25.05 27.98 24.59C29.3 24.14 30.47 23.31 31.35 22.21C32.23 21.1 32.78 19.77 32.94 18.36C33.11 16.95 32.87 15.52 32.27 14.24C31.67 12.96 30.72 11.88 29.54 11.12C28.36 10.37 26.99 9.96 25.59 9.96Z" fill="#FFFFFF" fill-opacity="1.000000" fill-rule="nonzero"/>
</svg>
