<svg width="17.142822" height="12.000000" viewBox="0 0 17.1428 12" fill="none" xmlns="http://www.w3.org/2000/svg" xmlns:xlink="http://www.w3.org/1999/xlink">
	<desc>
			Created with Pixso.
	</desc>
	<defs/>
	<path id="Vector" d="M6.85 8.57L11.3 6L6.85 3.42L6.85 8.57ZM16.76 1.86C16.87 2.26 16.95 2.8 17 3.48C17.06 4.17 17.09 4.76 17.09 5.28L17.14 6C17.14 7.87 17 9.25 16.76 10.13C16.55 10.91 16.05 11.4 15.28 11.62C14.87 11.73 14.14 11.81 13.01 11.86C11.89 11.92 10.87 11.94 9.93 11.94L8.57 12C4.97 12 2.74 11.86 1.86 11.62C1.08 11.4 0.59 10.91 0.37 10.13C0.26 9.73 0.18 9.19 0.13 8.51C0.07 7.82 0.05 7.23 0.05 6.71L0 6C0 4.12 0.13 2.74 0.37 1.86C0.59 1.08 1.08 0.59 1.86 0.37C2.26 0.26 3 0.18 4.13 0.13C5.24 0.07 6.26 0.05 7.2 0.05L8.57 0C12.16 0 14.39 0.13 15.28 0.37C16.05 0.59 16.55 1.08 16.76 1.86Z" fill="#FFFFFF" fill-opacity="1.000000" fill-rule="nonzero"/>
</svg>
