<?xml version="1.0" encoding="utf-8"?><svg viewBox="0 0 1059 1059" xmlns="http://www.w3.org/2000/svg" xmlns:xlink="http://www.w3.org/1999/xlink"><style>:root>svg{display:none}:root>svg:target{display:block}</style><svg viewBox="0 0 17.684 17.684" id="ArrowLeft" xmlns="http://www.w3.org/2000/svg"><defs><clipPath id="aa"><rect rx="0" width="17.559" height="17.559" transform="matrix(-1 0 0 1 17.747 .063)" fill-opacity="0"/></clipPath></defs><rect rx="0" width="17.559" height="17.559" transform="matrix(-1 0 0 1 17.747 .063)"/><g clip-path="url(#aa)" stroke-width="1.5" stroke-linejoin="round" stroke-linecap="round"><path d="M2.76 8.84h12.16M9.94 3.86l4.98 4.98-4.98 4.97"/></g></svg><svg viewBox="0 0 20.21 20.21" id="ArrowLeftDark" xmlns="http://www.w3.org/2000/svg"><defs><clipPath id="ba"><rect rx="0" width="20.086" height="20.086" transform="matrix(-1 0 0 1 20.273 .063)" fill-opacity="0"/></clipPath></defs><rect rx="0" width="20.086" height="20.086" transform="matrix(-1 0 0 1 20.273 .063)"/><g clip-path="url(#ba)" stroke-width="1.5" stroke-linejoin="round" stroke-linecap="round"><path d="M3.15 10.1h13.9m-5.69-5.68 5.69 5.68-5.69 5.68"/></g></svg><svg viewBox="0 0 17.791 11.373" id="ArrowTop" xmlns="http://www.w3.org/2000/svg"><path d="m8.89 0 8.9 9.97-1.25 1.4-7.65-8.58-7.65 8.58L0 9.97 8.89 0Z"/></svg><svg viewBox="0 0 72 72" id="Bahan" xmlns="http://www.w3.org/2000/svg"><defs><clipPath id="da"><rect rx="0" width="71" height="71" transform="translate(.5 .5)" fill-opacity="0"/></clipPath></defs><rect rx="0" width="71" height="71" transform="translate(.5 .5)"/><g clip-path="url(#da)"><path d="M43.87 53.8v2.25h-2.25v-3.02a1.13 1.13 0 0 0-1.12-1.13c-.3 0-.59.12-.8.33-.21.21-.33.5-.33.8v3.02h-6.75v-3.02a1.13 1.13 0 0 0-1.12-1.13c-.3 0-.59.12-.8.33-.21.21-.33.5-.33.8v3.02h-2.25V53.8c.37-10.41 15.38-10.41 15.75 0Zm12.38-9c-1.25 0-2.44.5-3.32 1.38-.88.88-1.38 2.07-1.38 3.32 0 1.24.5 2.43 1.38 3.31.88.88 2.07 1.38 3.32 1.38a4.71 4.71 0 0 0 4.7-4.71c0-1.25-.49-2.45-1.38-3.33a4.71 4.71 0 0 0-3.32-1.38v.03Zm-15.56-5.43c0-1.24-.5-2.44-1.38-3.32A4.677 4.677 0 0 0 36 34.68c-1.25 0-2.44.49-3.32 1.37a4.71 4.71 0 0 0-1.38 3.32c0 1.24.5 2.44 1.38 3.32.88.88 2.07 1.37 3.32 1.37 1.24 0 2.43-.49 3.31-1.37a4.71 4.71 0 0 0 1.38-3.32ZM15.75 54.15a4.693 4.693 0 0 0 4.69-4.69c0-1.24-.5-2.44-1.38-3.32a4.677 4.677 0 0 0-3.31-1.37c-1.25 0-2.44.49-3.32 1.37a4.71 4.71 0 0 0-1.38 3.32 4.693 4.693 0 0 0 4.7 4.69Zm40.5 2.1c-2.09 0-4.1.82-5.57 2.3a7.872 7.872 0 0 0-2.31 5.57v2.25h2.25v-3.04c0-.3.12-.58.33-.79.21-.21.5-.33.8-.33a1.13 1.13 0 0 1 1.12 1.12v3.04h6.75v-3.04c0-.3.12-.58.33-.79.21-.21.5-.33.8-.33a1.13 1.13 0 0 1 1.12 1.12v3.04h2.25v-2.25c0-2.09-.83-4.09-2.31-5.57a7.839 7.839 0 0 0-5.56-2.3Zm-40.5 0c-2.09 0-4.1.82-5.57 2.3a7.872 7.872 0 0 0-2.31 5.57v2.25h2.25v-3.04c0-.3.12-.58.33-.79.21-.21.5-.33.8-.33a1.13 1.13 0 0 1 1.12 1.12v3.04h6.75v-3.04c0-.3.12-.58.33-.79.21-.21.5-.33.8-.33a1.13 1.13 0 0 1 1.12 1.12v3.04h2.25v-2.25c0-2.09-.83-4.09-2.31-5.57a7.839 7.839 0 0 0-5.56-2.3Zm27.59-44.41h-4.59V7.25A2.747 2.747 0 0 0 36 4.5c-.74 0-1.44.29-1.95.8-.52.52-.81 1.22-.81 1.95v4.59h-4.59c-.73 0-1.43.29-1.95.81a2.755 2.755 0 0 0 0 3.9c.52.51 1.22.8 1.95.8h4.59v4.59c0 .73.29 1.44.81 1.95.51.52 1.21.81 1.95.81.73 0 1.43-.29 1.94-.81.52-.51.81-1.22.81-1.95v-4.59h4.59c.73 0 1.43-.29 1.95-.8a2.755 2.755 0 0 0 0-3.9c-.52-.52-1.22-.81-1.95-.81ZM57.37 36c0 1.44-.15 2.89-.44 4.3-.06.3 0 .61.17.86.17.26.43.43.73.49s.61 0 .86-.17c.26-.17.43-.43.49-.73.31-1.56.46-3.16.44-4.75.01-3.68-.83-7.3-2.47-10.58a23.492 23.492 0 0 0-6.98-8.32.987.987 0 0 0-.4-.19 1.06 1.06 0 0 0-.85.12c-.13.07-.24.17-.32.29-.09.12-.16.25-.19.4a1.081 1.081 0 0 0 .41 1.17c2.66 1.99 4.83 4.57 6.31 7.54 1.49 2.97 2.25 6.24 2.24 9.57Zm-43.42 5.62a1.149 1.149 0 0 0 .88-.4c.11-.13.19-.29.23-.45.04-.16.04-.33.01-.5a21.388 21.388 0 0 1 8.02-21.3c.22-.18.37-.45.4-.73.03-.29-.05-.58-.22-.81-.18-.23-.44-.39-.72-.43-.29-.05-.58.02-.82.18a23.512 23.512 0 0 0-6.91 8.3A23.55 23.55 0 0 0 12.37 36c0 1.58.16 3.16.47 4.72.05.25.19.48.39.65.2.16.46.25.72.25Z"/></g></svg><svg viewBox="0 0 201 50" id="Logo" xmlns="http://www.w3.org/2000/svg"><g clip-path="url(#na)"><path d="M19.822 20.15c1.981.034 3.987.841 5.486 2.102.583.49 1.1 1.05 1.694 1.526.595.474 1.292.867 2.054.934 1.66.147 2.973-1.248 3.265-2.758.24-1.243-.669-2.628-1.426-3.55-.692-.842-1.536-1.552-2.432-2.18-2.388-1.672-5.036-2.596-7.919-2.998-.683 2.057-.943 4.45-.723 6.922v.001Zm29.891 19.424c-2.054-3.33-5.381.488-7.827 1.219-1.593.508-3.317.453-4.95.158-1.986 2.392-4.227 4.404-6.64 5.974 5.47 2.31 12.369 2.482 17.205-1.308 1.802-1.371 3.463-3.811 2.213-6.044v.001Z"/><path d="M44.095 18.391c-.182-5.926-2.827-12.276-7.837-15.804C31.93-.461 26.16-.736 21.331 1.343c-5.131 2.211-8.94 7.13-9.817 12.572-1.854 9.972 2.485 20.19 9.98 26.943 2.01-.924 4.631-3.002 6.234-5.032-4.141-3.63-7.586-8.372-8.22-13.923-.622-3.783-.245-7.705 1.319-10.737 1.845-3.574 6.548-5.144 10.079-2.967 3.208 1.978 4.11 5.967 4.24 9.441.14 3.675-.77 7.337-2.23 10.699a33.827 33.827 0 0 1-3.74 6.495c-.295.403-.608.79-.912 1.186-1.853 2.41-5.36 5.093-7.545 5.705-2.907.813-5.556.669-8.22-.877-2.943-1.707-5.064-4.666-5.516-8.02-.493-3.648.95-7.681 3.92-9.987-.4-2.707-.393-5.434-.095-8.149-4.26 1.772-7.705 5.304-9.462 9.518-2.689 6.446-1.258 14.297 3.5 19.45a19.24 19.24 0 0 0 2.576 2.322c2.97 2.229 6.574 3.705 10.314 3.973 4.054.29 7.91-.86 11.36-2.908 2.809-1.667 5.278-3.86 7.36-6.35 5.058-6.265 7.995-14.27 7.64-22.307v.001ZM67.832 38.23c2.576 0 4.316-.789 5.603-1.577v1.954c-1.287.651-2.958 1.405-5.672 1.405-5.115 0-8.804-3.838-8.804-8.98 0-5.141 3.69-8.98 8.804-8.98 2.68 0 4.28.754 5.568 1.406v1.953c-1.322-.789-2.958-1.576-5.498-1.576-4.071 0-6.89 3.05-6.89 7.197 0 4.148 2.819 7.198 6.89 7.198Zm11.03-14.875c.974-.514 3.2-1.303 5.916-1.303 4.628 0 6.82 2.228 6.82 6.513V39.6h-1.844v-2.33a6.378 6.378 0 0 1 .105-1.509h-.07c0 .137-2.157 4.25-6.646 4.25-3.2 0-5.358-1.919-5.358-4.695 0-4.318 4.733-6.443 11.901-5.381v-1.303c0-3.599-2.018-4.833-5.08-4.833-2.576 0-4.838.892-5.742 1.44v-1.886l-.002.001Zm10.822 8.123c-6.23-.994-9.917.652-9.917 3.736 0 1.816 1.392 3.085 3.585 3.085 3.653 0 6.332-3.564 6.332-6.82Zm8.246-9.014h1.88v2.845c0 .754-.14 1.336-.105 1.37h.035c.905-2.604 2.853-4.627 5.533-4.627.487 0 .974.103 1.009.103v1.85c-.035 0-.418-.067-.836-.067-3.897 0-5.603 4.592-5.603 8.054V39.6H97.93l.001-17.137Zm27.456 7.609c0 .377-.035.754-.035 1.028h-13.954v.24c0 4.113 2.784 6.923 6.856 6.923 2.331 0 4.698-.686 6.473-1.816v1.92c-1.532.891-3.863 1.645-6.507 1.645-5.15 0-8.839-3.633-8.839-8.98 0-5.176 3.618-8.98 8.317-8.98 4.941 0 7.689 3.804 7.689 8.02ZM117.66 23.8c-3.618 0-5.811 2.845-6.194 5.827h11.902c0-2.982-1.983-5.827-5.708-5.827Zm13.327-8.877h1.914v20.325c0 2.057.592 3.05 2.227 3.05.801 0 1.357-.137 1.427-.172v1.68c-.069 0-.696.205-1.705.205-2.331 0-3.863-1.233-3.863-4.42V14.922Zm26.134 16.109c0 5.142-3.724 8.98-8.735 8.98-5.012 0-8.735-3.838-8.735-8.98 0-5.141 3.723-8.98 8.735-8.98 5.011 0 8.735 3.839 8.735 8.98Zm-1.949 0c0-4.18-2.819-7.232-6.785-7.232-3.967 0-6.786 3.05-6.786 7.232s2.819 7.232 6.786 7.232c3.966 0 6.785-3.05 6.785-7.232Zm23.662 0c0 5.142-3.723 8.98-8.734 8.98-5.012 0-8.735-3.838-8.735-8.98 0-5.141 3.723-8.98 8.735-8.98 5.011 0 8.734 3.839 8.734 8.98Zm-1.948 0c0-4.18-2.819-7.232-6.785-7.232-3.967 0-6.786 3.05-6.786 7.232s2.819 7.232 6.786 7.232c3.966 0 6.785-3.05 6.785-7.232Zm7.724-8.568h1.879v2.228c0 .788-.104 1.37-.104 1.37h.069c.974-2.056 3.514-4.01 6.507-4.01 4.628 0 8.038 3.873 8.038 8.98 0 5.21-3.41 8.98-8.038 8.98-2.993 0-5.498-1.953-6.438-3.976h-.069s.104.583.104 1.406v9.7h-1.948V22.464Zm14.442 8.568c0-4.078-2.436-7.232-6.194-7.232-2.993 0-6.334 2.194-6.334 7.232 0 5.039 3.341 7.232 6.334 7.232 3.758 0 6.194-3.05 6.194-7.232Zm-64.59 18.57v-2.448h-2.738v2.448h-.737v-5.438h.737v2.38h2.738v-2.38h.736v5.438h-.736Zm5.814 0v-5.438h3.391v.612h-2.654v1.767h2.24v.612h-2.24v1.836h2.768v.612h-3.505Zm10.296-5.528h.015l2.546 5.53h-.783l-.544-1.209h-2.461l-.537 1.208h-.783l2.547-5.53Zm.966 3.724c-.376-.831-.66-1.48-.959-2.252a51.6 51.6 0 0 1-.966 2.252h1.925Zm6.578 1.804v-5.438h.736v4.826h2.377v.612h-3.113Zm9.068-4.826v4.826h-.736v-4.826h-1.68v-.612h4.103v.612h-1.687Zm9.904 4.826v-2.448h-2.738v2.448h-.737v-5.438h.737v2.38h2.738v-2.38h.736v5.438h-.736Z"/></g><defs><clipPath id="na"><path d="M0 0h201v50H0z"/></clipPath></defs></svg><svg viewBox="0 0 200.567 50.657" id="Logo-Footer" xmlns="http://www.w3.org/2000/svg"><defs><clipPath id="ma"><rect rx="0" width="199.567" height="49.657" transform="translate(.5 .5)" fill-opacity="0"/></clipPath></defs><rect rx="0" width="199.567" height="49.657" transform="translate(.5 .5)"/><g clip-path="url(#ma)"><path d="M19.77 20.41c1.98.03 3.98.85 5.48 2.13.58.5 1.1 1.06 1.69 1.54.59.49 1.29.88 2.05.95 1.66.15 2.97-1.26 3.26-2.79.24-1.26-.67-2.66-1.43-3.6-.69-.85-1.53-1.57-2.42-2.21-2.39-1.69-5.03-2.63-7.9-3.04-.69 2.09-.95 4.51-.73 7.02ZM49.6 40.09c-2.05-3.38-5.37.49-7.81 1.23-1.59.52-3.31.46-4.94.16-1.98 2.43-4.22 4.47-6.62 6.06 5.45 2.34 12.34 2.51 17.16-1.33 1.8-1.39 3.46-3.86 2.21-6.12Z"/><path d="M44 18.63c-.19-6.01-2.83-12.44-7.82-16.01C31.86-.47 26.1-.75 21.28 1.36c-5.12 2.24-8.92 7.22-9.8 12.73-1.85 10.11 2.48 20.46 9.96 27.3 2.01-.94 4.62-3.04 6.22-5.1-4.13-3.68-7.57-8.48-8.2-14.1-.62-3.84-.24-7.81 1.32-10.88 1.84-3.62 6.53-5.21 10.05-3.01 3.21 2.01 4.11 6.05 4.24 9.57.13 3.72-.77 7.43-2.23 10.84-.95 2.22-2.14 4.33-3.54 6.3l-.19.28c-.3.41-.61.8-.91 1.2-1.85 2.44-5.35 5.16-7.53 5.78-2.9.82-5.54.68-8.2-.89-2.94-1.73-5.06-4.73-5.51-8.12-.49-3.7.95-7.79 3.91-10.12-.39-2.75-.39-5.51-.09-8.26-4.25 1.8-7.69 5.37-9.44 9.64-2.68 6.53-1.26 14.49 3.49 19.71.78.86 1.65 1.65 2.57 2.35 2.97 2.26 6.56 3.75 10.29 4.03 4.05.29 7.9-.87 11.34-2.95 2.8-1.69 5.27-3.91 7.34-6.43 5.05-6.35 7.98-14.46 7.63-22.6Zm23.68 20.1c2.57 0 4.31-.8 5.59-1.6v1.98c-1.28.66-2.95 1.42-5.66 1.42-5.1 0-8.78-3.89-8.78-9.1 0-5.2 3.68-9.09 8.78-9.09 2.68 0 4.27.76 5.56 1.42v1.98c-1.32-.8-2.95-1.6-5.49-1.6-4.06 0-6.87 3.09-6.87 7.29 0 4.21 2.81 7.3 6.87 7.3Zm11.01-15.07c.97-.52 3.19-1.32 5.9-1.32 4.62 0 6.81 2.25 6.81 6.59v11.19h-1.84v-2.37c-.04-.9.1-1.52.1-1.52h-.07c0 .14-2.15 4.3-6.63 4.3-3.2 0-5.35-1.94-5.35-4.75 0-4.38 4.72-6.53 11.88-5.46V29c0-3.64-2.02-4.89-5.07-4.89-2.57 0-4.83.9-5.73 1.46v-1.91Zm10.8 8.23c-6.22-1.01-9.9.66-9.9 3.78 0 1.84 1.39 3.13 3.58 3.13 3.64 0 6.32-3.61 6.32-6.91Zm8.22-9.14h1.88v2.89c0 .76-.14 1.35-.1 1.38h.03c.9-2.63 2.85-4.68 5.52-4.68.49 0 .97.1 1.01.1v1.88c-.04 0-.42-.07-.84-.07-3.88 0-5.59 4.65-5.59 8.16v7.71h-1.91V22.75Zm27.4 7.71c0 .38-.03.77-.03 1.04h-13.93v.25c0 4.16 2.78 7.01 6.84 7.01 2.33 0 4.69-.69 6.46-1.84v1.95c-1.53.9-3.85 1.66-6.49 1.66-5.14 0-8.82-3.68-8.82-9.09 0-5.25 3.61-9.1 8.3-9.1 4.93 0 7.67 3.85 7.67 8.12Zm-7.71-6.35c-3.61 0-5.8 2.88-6.18 5.9h11.88c0-3.02-1.98-5.9-5.7-5.9Zm13.3-9h1.91v20.6c0 2.08.59 3.09 2.22 3.09.8 0 1.36-.14 1.43-.18v1.7c-.07 0-.7.21-1.71.21-2.32 0-3.85-1.25-3.85-4.48V15.11Zm26.08 16.32c0 5.21-3.72 9.1-8.72 9.1s-8.71-3.89-8.71-9.1c0-5.2 3.71-9.09 8.71-9.09 5 0 8.72 3.89 8.72 9.09Zm-1.95 0c0-4.23-2.81-7.32-6.77-7.32-3.96 0-6.77 3.09-6.77 7.32 0 4.24 2.81 7.33 6.77 7.33 3.96 0 6.77-3.09 6.77-7.33Zm23.61 0c0 5.21-3.71 9.1-8.71 9.1-5 0-8.72-3.89-8.72-9.1 0-5.2 3.72-9.09 8.72-9.09s8.71 3.89 8.71 9.09Zm-1.94 0c0-4.23-2.81-7.32-6.77-7.32-3.96 0-6.77 3.09-6.77 7.32 0 4.24 2.81 7.33 6.77 7.33 3.96 0 6.77-3.09 6.77-7.33Zm7.71-8.68h1.87v2.26c0 .8-.1 1.39-.1 1.39h.07c.97-2.08 3.5-4.06 6.49-4.06 4.62 0 8.02 3.92 8.02 9.09 0 5.28-3.4 9.1-8.02 9.1-2.99 0-5.49-1.98-6.42-4.03h-.07s.1.59.1 1.43v9.83h-1.94V22.75Zm14.41 8.68c0-4.13-2.43-7.32-6.18-7.32-2.99 0-6.32 2.22-6.32 7.32 0 5.11 3.33 7.33 6.32 7.33 3.75 0 6.18-3.09 6.18-7.33Zm-64.45 18.82v-2.48h-2.73v2.48h-.74v-5.51h.74v2.41h2.73v-2.41h.73v5.51h-.73Zm5.8 0v-5.51h3.38v.62h-2.65v1.79h2.24v.62h-2.24v1.86h2.77v.62h-3.5Zm10.27-5.6h.02l2.54 5.6h-.78l-.55-1.22h-2.45l-.54 1.22h-.78l2.54-5.6Zm.97 3.77c-.38-.84-.66-1.5-.96-2.28-.31.78-.59 1.44-.97 2.28h1.93Zm6.56 1.83v-5.51h.73v4.89h2.38v.62h-3.11Zm9.05-4.89v4.89h-.74v-4.89h-1.67v-.62h4.09v.62h-1.68Zm9.88 4.89v-2.48h-2.73v2.48h-.74v-5.51h.74v2.41h2.73v-2.41h.74v5.51h-.74Z"/></g></svg><svg viewBox="0 0 1059 1059" id="bg-benefits" xmlns="http://www.w3.org/2000/svg"><defs><filter id="ea" x="0" y="0" width="1059" height="1059" filterUnits="userSpaceOnUse" color-interpolation-filters="sRGB"><feFlood flood-opacity="0" result="BackgroundImageFix"/><feBlend in="SourceGraphic" in2="BackgroundImageFix" result="shape"/><feGaussianBlur stdDeviation="84.667" result="effect_layerBlur_1"/></filter></defs><g opacity=".2" filter="url(#ea)"><circle cx="529.5" cy="529.5" r="275.5"/></g></svg><svg viewBox="0 0 15.105 14.118" id="calendar" xmlns="http://www.w3.org/2000/svg"><path d="M13.45 0h-1.41v1.41a.47.47 0 1 1-.94 0V0H3.57v1.41a.47.47 0 1 1-.94 0V0H1.22C.51 0 0 .61 0 1.41V3.1h15.05V1.41c0-.8-.84-1.41-1.6-1.41ZM0 4.09v8.61c0 .85.51 1.41 1.27 1.41H13.5c.75 0 1.6-.61 1.6-1.41V4.09H0ZM4.18 12H3.05c-.18 0-.37-.15-.37-.38v-1.18c0-.19.14-.37.37-.37h1.18c.19 0 .38.14.38.37v1.18c-.05.23-.19.38-.43.38Zm0-4.24H3.05c-.18 0-.37-.14-.37-.38V6.21c0-.19.14-.38.37-.38h1.18c.19 0 .38.14.38.38v1.17c-.05.24-.19.38-.43.38ZM7.95 12H6.77c-.19 0-.37-.15-.37-.38v-1.18c0-.19.14-.37.37-.37h1.18c.19 0 .37.14.37.37v1.18c0 .23-.14.38-.37.38Zm0-4.24H6.77c-.19 0-.37-.14-.37-.38V6.21c0-.19.14-.38.37-.38h1.18c.19 0 .37.14.37.38v1.17c0 .24-.14.38-.37.38ZM11.71 12h-1.17a.38.38 0 0 1-.38-.38v-1.18c0-.19.14-.37.38-.37h1.17c.19 0 .38.14.38.37v1.18c0 .23-.14.38-.38.38Zm0-4.24h-1.17c-.19 0-.38-.14-.38-.38V6.21c0-.19.14-.38.38-.38h1.17c.19 0 .38.14.38.38v1.17c0 .24-.14.38-.38.38Z"/></svg><svg viewBox="0 0 7.582 11.861" id="carousel-left-arrow" xmlns="http://www.w3.org/2000/svg"><path d="m0 5.93 6.65 5.93.93-.83-5.72-5.1L7.58.83 6.65 0 0 5.93Z"/><path d="m2.23 6.26 4.97 4.43.38.34-.38.33-.55.5-6.28-5.6L0 5.93l.37-.34L6.65 0l.55.49.38.34-.38.33-5.34 4.77.37.33ZM6.83.83l-5.72 5.1 5.72 5.1-.18.16-5.9-5.26L6.65.66l.18.17Z" fill-rule="evenodd"/></svg><svg viewBox="0 0 7.582 11.861" id="carousel-right-arrow" xmlns="http://www.w3.org/2000/svg"><path d="M7.58 5.93.93 11.86 0 11.03l5.71-5.1L0 .83.93 0l6.65 5.93Z"/><path d="M5.34 6.26.37 10.69l-.37.34.37.33.56.5 6.27-5.6.38-.33-.38-.34L.93 0 .37.49 0 .83l.37.33 5.34 4.77-.37.33ZM.75.83l5.72 5.1-5.72 5.1.18.16 5.9-5.26L.93.66.75.83Z" fill-rule="evenodd"/></svg><svg viewBox="0 0 15.385 20" id="geo" xmlns="http://www.w3.org/2000/svg"><path d="M7.69 0c-2.04 0-4 .83-5.44 2.3A7.939 7.939 0 0 0 0 7.85c0 6.73 6.99 11.8 7.29 12.02.11.08.25.13.4.13.14 0 .28-.05.4-.13.3-.22 7.29-5.29 7.29-12.02 0-2.08-.81-4.08-2.26-5.55A7.599 7.599 0 0 0 7.69 0Zm0 5c.55 0 1.09.16 1.55.48.46.31.82.76 1.03 1.28a2.91 2.91 0 0 1-.6 3.11c-.4.4-.89.67-1.44.78-.54.11-1.1.06-1.61-.16-.51-.21-.95-.58-1.26-1.05-.31-.47-.47-1.02-.47-1.59 0-.76.29-1.48.82-2.02C6.23 5.3 6.95 5 7.69 5Z"/></svg><svg viewBox="0 0 502.664 502.664" xml:space="preserve" id="icon" xmlns="http://www.w3.org/2000/svg"><path d="M153.821 358.226 0 274.337v-46.463l153.821-83.414v54.574L46.636 250.523l107.185 53.431v54.272zm26.273 29.358L282.103 115.08h32.227L212.084 387.584h-31.99zm168.749-29.358v-54.272l107.164-52.999-107.164-52.59v-53.927l153.821 83.522v46.183l-153.821 84.083z"/></svg><svg viewBox="0 0 16 16" id="linkedin" xmlns="http://www.w3.org/2000/svg"><path d="M5.94 5.57h2.97v1.48c.43-.85 1.52-1.62 3.17-1.62 3.16 0 3.92 1.7 3.92 4.81V16h-3.2v-5.05c0-1.78-.43-2.77-1.52-2.77-1.51 0-2.14 1.07-2.14 2.76V16h-3.2V5.57ZM.45 15.86h3.2V5.43H.45v10.43ZM4.11 2.04c0 .26-.05.53-.16.78-.1.24-.25.47-.44.66-.39.38-.91.6-1.46.6-.54 0-1.07-.22-1.45-.6-.19-.19-.34-.42-.45-.66C.05 2.57 0 2.3 0 2.04 0 1.49.21.98.6.59.98.21 1.51 0 2.05 0c.55 0 1.07.21 1.46.59.38.39.6.9.6 1.45Z" fill-rule="evenodd"/></svg><svg viewBox="0 0 19 19" id="list-ok" xmlns="http://www.w3.org/2000/svg"><path d="M2.74 2.8c-3.68 3.73-3.66 9.76.06 13.45 3.73 3.68 9.76 3.66 13.45-.06 3.68-3.73 3.66-9.76-.06-13.45C12.46-.94 6.43-.92 2.74 2.8Zm11.38 4.87L8.95 12.9c-.44.44-1.16.44-1.6 0l-.2-.2-.6-.6-1.68-1.66c-.44-.44-.44-1.17 0-1.61.44-.44 1.16-.44 1.6 0l1.68 1.67 4.37-4.41c.44-.44 1.16-.44 1.6 0 .44.42.44 1.14 0 1.58Z"/></svg><svg viewBox="0 0 18.726 13.5" id="mail" xmlns="http://www.w3.org/2000/svg"><path d="M2.39 0C1.75 0 1.15.25.7.7.25 1.15 0 1.75 0 2.39v8.71c0 .64.25 1.24.7 1.69.45.45 1.05.71 1.69.71h13.94c.63 0 1.24-.26 1.69-.71.45-.45.7-1.05.7-1.69V2.39A2.392 2.392 0 0 0 16.33 0H2.39Zm2.99 3.6a.635.635 0 0 0-.48-.1c-.17.04-.32.13-.41.27a.63.63 0 0 0-.11.48c.02.16.11.32.25.42l4.35 3.05a.696.696 0 0 0 .75 0l4.36-3.05c.07-.05.13-.11.18-.19.05-.07.08-.15.1-.24a.57.57 0 0 0 0-.26.671.671 0 0 0-.1-.23.54.54 0 0 0-.19-.18.771.771 0 0 0-.25-.1.586.586 0 0 0-.26.02c-.08.02-.16.05-.23.11L9.36 6.38 5.38 3.6Z" fill-rule="evenodd"/></svg><svg viewBox="0 0 22 22" id="prime_download" xmlns="http://www.w3.org/2000/svg"><defs><clipPath id="pa"><rect rx="0" width="21" height="21" transform="translate(.5 .5)" fill-opacity="0"/></clipPath></defs><rect rx="0" width="21" height="21" transform="translate(.5 .5)"/><g clip-path="url(#pa)"><path d="M16.7 19.02H5.29a2.495 2.495 0 0 1-1.68-.78c-.21-.24-.38-.51-.49-.81-.11-.3-.16-.62-.15-.93v-2.75c0-.19.08-.36.21-.49.12-.13.3-.2.48-.2s.36.07.49.2.2.3.2.49v2.75c-.02.27.06.54.23.75.17.21.42.35.69.39H16.7c.27-.04.51-.18.68-.39a.98.98 0 0 0 .23-.75v-2.75c0-.19.08-.36.2-.49a.697.697 0 0 1 .98 0c.13.13.2.3.2.49v2.75c.03.63-.2 1.26-.63 1.73s-1.03.75-1.66.79Z"/><path d="M11 14.43c-.1 0-.18-.01-.27-.05a.541.541 0 0 1-.22-.15l-3.67-3.67a.699.699 0 0 1-.18-.48c0-.17.07-.34.2-.47.13-.13.3-.2.47-.2.18 0 .35.06.48.18L11 12.77l3.18-3.18c.13-.12.3-.18.48-.18.17 0 .34.07.47.2.13.13.2.3.2.47.01.18-.06.35-.18.48l-3.67 3.67c-.06.07-.14.12-.22.15-.09.04-.17.05-.26.05Z"/><path d="M11 14.43a.68.68 0 0 1-.69-.68V3.66c0-.18.07-.36.2-.48.13-.13.3-.21.49-.21.18 0 .35.08.48.21.13.12.2.3.2.48v10.09c0 .18-.07.35-.2.48s-.3.2-.48.2Z"/></g></svg><svg viewBox="0 0 33 25" id="testimonal" xmlns="http://www.w3.org/2000/svg"><path d="M7.5 9.96c-.37 0-.72.06-1.07.11.11-.38.23-.78.41-1.13.19-.52.48-.96.78-1.41.24-.49.67-.82.98-1.23.33-.41.79-.68 1.14-1.01.35-.35.81-.53 1.18-.77.38-.23.71-.47 1.07-.59l.88-.37.78-.33L12.86 0l-.99.24c-.31.08-.69.17-1.13.28-.45.08-.92.31-1.45.52-.52.24-1.13.4-1.69.78-.57.36-1.22.67-1.8 1.16-.55.5-1.23.93-1.72 1.57-.55.6-1.08 1.23-1.5 1.94-.48.69-.81 1.43-1.15 2.17-.32.74-.57 1.5-.77 2.24a20.62 20.62 0 0 0-.64 4.07c-.05 1.19-.02 2.19.05 2.91.02.34.07.67.1.9l.04.28.05-.01c.29 1.39.96 2.67 1.94 3.68a7.368 7.368 0 0 0 3.58 2.06c1.36.33 2.78.26 4.1-.2a7.325 7.325 0 0 0 3.37-2.38 7.662 7.662 0 0 0 1.6-3.85c.16-1.41-.07-2.84-.67-4.12a7.525 7.525 0 0 0-2.74-3.12A7.366 7.366 0 0 0 7.5 9.96Zm18.09 0c-.37 0-.72.06-1.07.11.12-.38.23-.78.42-1.13.19-.52.48-.96.77-1.41.25-.49.67-.82.99-1.23.33-.41.78-.68 1.14-1.01.35-.35.81-.53 1.17-.77.38-.23.72-.47 1.07-.59l.89-.37.78-.33-.8-3.23-.98.24c-.31.08-.7.17-1.13.28-.45.08-.93.31-1.46.52-.52.24-1.12.4-1.69.78-.56.37-1.22.67-1.79 1.16-.56.5-1.23.94-1.73 1.57-.54.6-1.08 1.23-1.49 1.94-.49.69-.81 1.43-1.16 2.17-.31.74-.56 1.5-.77 2.24-.39 1.47-.56 2.87-.63 4.07-.06 1.19-.02 2.19.05 2.91.02.34.07.67.1.9l.04.28.04-.01c.3 1.39.97 2.67 1.95 3.68a7.294 7.294 0 0 0 7.68 1.86 7.377 7.377 0 0 0 3.37-2.38 7.561 7.561 0 0 0 1.59-3.85c.17-1.41-.07-2.84-.67-4.12a7.501 7.501 0 0 0-2.73-3.12 7.374 7.374 0 0 0-3.95-1.16Z"/></svg><svg viewBox="0 0 17.143 12" id="youtube" xmlns="http://www.w3.org/2000/svg"><path d="M6.85 8.57 11.3 6 6.85 3.42v5.15Zm9.91-6.71c.11.4.19.94.24 1.62.06.69.09 1.28.09 1.8l.05.72c0 1.87-.14 3.25-.38 4.13-.21.78-.71 1.27-1.48 1.49-.41.11-1.14.19-2.27.24-1.12.06-2.14.08-3.08.08L8.57 12c-3.6 0-5.83-.14-6.71-.38-.78-.22-1.27-.71-1.49-1.49-.11-.4-.19-.94-.24-1.62-.06-.69-.08-1.28-.08-1.8L0 6c0-1.88.13-3.26.37-4.14.22-.78.71-1.27 1.49-1.49C2.26.26 3 .18 4.13.13 5.24.07 6.26.05 7.2.05L8.57 0c3.59 0 5.82.13 6.71.37.77.22 1.27.71 1.48 1.49Z"/></svg></svg>